<svg width="432" height="926" viewBox="0 0 432 926" fill="none" xmlns="http://www.w3.org/2000/svg">
<rect width="428" height="926" transform="translate(4)" fill="#D0D0D0"/>
<path fill-rule="evenodd" clip-rule="evenodd" d="M157.787 925.341H4V864C83.0633 871.406 130.942 895.729 157.787 925.341Z" fill="url(#paint0_linear_2_410)" fill-opacity="0.36"/>
<path fill-rule="evenodd" clip-rule="evenodd" d="M372 30.2915C347.61 49.4214 310.396 61.4355 263.196 61.4355C213.768 61.4355 177.949 85.8185 145.1 108.179C101.218 138.05 62.6379 164.313 4 124.015V1H372V30.2915Z" fill="url(#paint1_linear_2_410)" fill-opacity="0.36"/>
<g filter="url(#filter0_d_2_410)">
<g filter="url(#filter1_d_2_410)">
<path d="M77.3615 386.282C71.8312 388.31 -15.9141 456.202 91.6267 517.289C204.338 630 241 557.565 224.62 520.735C218.059 505.983 204.651 431.625 253.494 420.036C304.496 407.934 335.809 272.667 201.712 281.658C123.539 286.899 83.3564 339.543 77.3615 386.282Z" fill="url(#paint2_linear_2_410)" shape-rendering="crispEdges"/>
</g>
</g>
<defs>
<filter id="filter0_d_2_410" x="-12" y="249" width="372" height="382" filterUnits="userSpaceOnUse" color-interpolation-filters="sRGB">
<feFlood flood-opacity="0" result="BackgroundImageFix"/>
<feColorMatrix in="SourceAlpha" type="matrix" values="0 0 0 0 0 0 0 0 0 0 0 0 0 0 0 0 0 0 127 0" result="hardAlpha"/>
<feOffset/>
<feGaussianBlur stdDeviation="6"/>
<feComposite in2="hardAlpha" operator="out"/>
<feColorMatrix type="matrix" values="0 0 0 0 0.0708333 0 0 0 0 0.0708333 0 0 0 0 0.0708333 0 0 0 0.08 0"/>
<feBlend mode="normal" in2="BackgroundImageFix" result="effect1_dropShadow_2_410"/>
<feBlend mode="normal" in="SourceGraphic" in2="effect1_dropShadow_2_410" result="shape"/>
</filter>
<filter id="filter1_d_2_410" x="30.4964" y="273.33" width="274.633" height="312.37" filterUnits="userSpaceOnUse" color-interpolation-filters="sRGB">
<feFlood flood-opacity="0" result="BackgroundImageFix"/>
<feColorMatrix in="SourceAlpha" type="matrix" values="0 0 0 0 0 0 0 0 0 0 0 0 0 0 0 0 0 0 127 0" result="hardAlpha"/>
<feOffset/>
<feGaussianBlur stdDeviation="3.94966"/>
<feComposite in2="hardAlpha" operator="out"/>
<feColorMatrix type="matrix" values="0 0 0 0 0 0 0 0 0 0 0 0 0 0 0 0 0 0 0.06 0"/>
<feBlend mode="normal" in2="BackgroundImageFix" result="effect1_dropShadow_2_410"/>
<feBlend mode="normal" in="SourceGraphic" in2="effect1_dropShadow_2_410" result="shape"/>
</filter>
<linearGradient id="paint0_linear_2_410" x1="80.8933" y1="864" x2="80.8933" y2="925.341" gradientUnits="userSpaceOnUse">
<stop stop-color="#56AB2F"/>
<stop offset="1" stop-color="#A8E063"/>
</linearGradient>
<linearGradient id="paint1_linear_2_410" x1="188" y1="1" x2="188" y2="144.6" gradientUnits="userSpaceOnUse">
<stop stop-color="#56AB2F"/>
<stop offset="1" stop-color="#A8E063"/>
</linearGradient>
<linearGradient id="paint2_linear_2_410" x1="209.996" y1="574.684" x2="143.18" y2="293.095" gradientUnits="userSpaceOnUse">
<stop stop-color="#FFC107" stop-opacity="0.8"/>
<stop offset="1" stop-color="#7CB342"/>
</linearGradient>
</defs>
</svg>
